<svg width="693" height="200" viewBox="0 0 693 200" fill="none" xmlns="http://www.w3.org/2000/svg">
<path fill-rule="evenodd" clip-rule="evenodd" d="M5.23853 159.461V5.33847H33.1077L100.999 108.496V5.33847H129.541V159.461H101.672L33.7814 56.3039V159.461H5.23853ZM32.32 51.4249L102.46 158H128.08V6.79993H102.46V113.375L32.32 6.79993H6.69998V158H32.32V51.4249ZM156.331 124.204L156.328 124.198C150.475 112.135 147.571 98.1899 147.571 82.3999C147.571 66.6099 150.475 52.6646 156.328 40.6019L156.331 40.5957C162.257 28.5287 170.737 19.11 181.764 12.3789C192.815 5.56265 206.041 2.18848 221.377 2.18848C236.713 2.18848 249.939 5.56234 260.99 12.378C272.086 19.1084 280.568 28.5274 286.425 40.5972C292.349 52.6611 295.289 66.608 295.289 82.3999C295.289 98.1924 292.349 112.14 286.424 124.204C280.567 136.274 272.085 145.726 260.991 152.526L260.989 152.527C249.938 159.273 236.713 162.611 221.377 162.611C206.042 162.611 192.817 159.273 181.766 152.527L181.76 152.524C170.736 145.723 162.257 136.271 156.331 124.204ZM285.112 123.56C290.922 111.73 293.827 98.0099 293.827 82.3999C293.827 66.7899 290.922 53.0699 285.112 41.2399C279.372 29.4099 271.077 20.2049 260.227 13.6249C249.447 6.97492 236.497 3.64993 221.377 3.64993C206.257 3.64993 193.307 6.97492 182.527 13.6249C171.747 20.2049 163.452 29.4099 157.642 41.2399C151.902 53.0699 149.032 66.7899 149.032 82.3999C149.032 98.0099 151.902 111.73 157.642 123.56C163.452 135.39 171.747 144.63 182.527 151.28C193.307 157.86 206.257 161.15 221.377 161.15C236.497 161.15 249.447 157.86 260.227 151.28C271.077 144.63 279.372 135.39 285.112 123.56ZM245.863 129.385L245.869 129.381C252.395 125.008 257.293 118.845 260.554 110.829L260.558 110.819C263.899 102.774 265.591 93.3117 265.591 82.3999C265.591 71.4872 263.898 62.0991 260.561 54.1986L260.558 54.1916L260.555 54.1846C257.296 46.2397 252.398 40.109 245.869 35.734L245.863 35.7301C239.433 31.3765 231.296 29.084 221.362 28.9463C211.435 28.8787 203.311 31.069 196.892 35.4151C190.433 39.7879 185.531 45.9537 182.199 53.9756C178.926 62.0232 177.269 71.4871 177.269 82.3999C177.269 93.3137 178.927 102.741 182.198 110.716C185.458 118.594 190.322 124.692 196.785 129.068C203.287 133.424 211.461 135.716 221.392 135.854C231.319 135.921 239.444 133.731 245.863 129.385ZM221.377 137.315C211.227 137.175 202.757 134.83 195.967 130.28C189.247 125.73 184.207 119.395 180.847 111.275C177.487 103.085 175.807 93.4599 175.807 82.3999C175.807 71.3399 177.487 61.6799 180.847 53.4199C184.277 45.1599 189.352 38.7549 196.072 34.2049C202.792 29.6549 211.227 27.4149 221.377 27.4849C231.527 27.6249 239.962 29.9699 246.682 34.5199C253.472 39.0699 258.547 45.4399 261.907 53.6299C265.337 61.7499 267.052 71.3399 267.052 82.3999C267.052 93.4599 265.337 103.12 261.907 111.38C258.547 119.64 253.472 126.045 246.682 130.595C239.962 135.145 231.527 137.385 221.377 137.315ZM345.494 159.461V31.9914H296.564V5.33847H422.652V31.9914H373.722V159.461H345.494ZM372.261 30.5299H421.191V6.79993H298.026V30.5299H346.956V158H372.261V30.5299ZM421.385 159.461L469.976 5.33847H509.184L557.776 159.461H528.675L518.228 126.701H460.81L450.49 159.461H421.385ZM459.738 125.24H519.296L529.743 158H555.783L508.113 6.79993H471.048L423.378 158H449.418L459.738 125.24ZM489.335 31.2846L467.18 101.615H511.762L489.335 31.2846ZM509.762 100.153L489.344 36.1216L469.172 100.153H509.762ZM573.305 159.461V5.33847H634.721C645.127 5.33847 653.785 7.43981 660.592 11.7564C667.378 15.9451 672.437 21.3542 675.718 27.9857C679.034 34.5479 680.703 41.3509 680.703 48.3799C680.703 56.948 678.648 64.318 674.465 70.4122C672.42 73.442 669.998 75.9845 667.205 78.0365C672.434 80.6019 676.714 84.1818 680.008 88.7913C685.163 95.9085 687.738 104.014 687.738 113.06C687.738 122.208 685.986 130.283 682.433 137.244C678.867 144.231 673.548 149.69 666.512 153.607C659.52 157.538 650.929 159.461 640.811 159.461H573.305ZM678.821 89.6449C675.53 85.0366 671.196 81.4864 665.819 78.9945C665.288 78.7483 664.746 78.5125 664.195 78.2869C664.701 77.9824 665.196 77.6631 665.679 77.3289C668.621 75.2968 671.146 72.7171 673.256 69.5899C677.246 63.7799 679.241 56.7099 679.241 48.3799C679.241 41.5899 677.631 35.0099 674.411 28.6399C671.261 22.2699 666.396 17.0549 659.816 12.9949C653.306 8.86493 644.941 6.79993 634.721 6.79993H574.766V158H640.811C650.751 158 659.081 156.11 665.801 152.33C672.591 148.55 677.701 143.3 681.131 136.58C684.561 129.86 686.276 122.02 686.276 113.06C686.276 104.31 683.791 96.5049 678.821 89.6449ZM656.468 123.22L656.473 123.213C658.339 120.188 659.3 116.578 659.3 112.325C659.3 108.482 658.474 105.086 656.852 102.103C655.241 99.1371 652.888 96.7763 649.755 95.0137L649.745 95.0081L649.735 95.0023C646.64 93.1971 642.881 92.2614 638.396 92.2614H601.848V132.703H637.661C641.87 132.703 645.593 131.871 648.863 130.237C652.133 128.535 654.656 126.198 656.468 123.22ZM600.386 134.165V90.7999H638.396C643.086 90.7999 647.111 91.7799 650.471 93.7399C653.831 95.6299 656.386 98.1849 658.136 101.405C659.886 104.625 660.761 108.265 660.761 112.325C660.761 116.805 659.746 120.69 657.716 123.98C655.756 127.2 653.026 129.72 649.526 131.54C646.026 133.29 642.071 134.165 637.661 134.165H600.386ZM601.848 65.7135H634.406C637.856 65.7135 640.886 65.0513 643.531 63.7614C646.151 62.4835 648.216 60.6088 649.752 58.114C651.259 55.6646 652.055 52.5853 652.055 48.7999C652.055 43.8932 650.498 39.8913 647.422 36.687C644.401 33.5403 640.131 31.8864 634.406 31.8864H601.848V65.7135ZM634.406 67.1749C638.046 67.1749 641.301 66.4749 644.171 65.0749C647.041 63.6749 649.316 61.6099 650.996 58.8799C652.676 56.1499 653.516 52.7899 653.516 48.7999C653.516 43.5499 651.836 39.1749 648.476 35.6749C645.116 32.1749 640.426 30.4249 634.406 30.4249H600.386V67.1749H634.406Z" fill="#8B8B8B"/>
</svg>
